<svg width="167" height="216" viewBox="0 0 167 216" fill="none" xmlns="http://www.w3.org/2000/svg">
<path d="M83.537 120.103C53.4418 120.103 27.3663 127.98 14.6159 139.474C11.3582 141.896 4.84286 148.094 4.84286 153.518L5.00268 159.814C1.76541 164.197 0 168.926 0 173.858C0 196.593 37.5102 215.023 83.7814 215.023V184.028C68.2389 184.028 53.252 181.195 41.8579 177.248C38.542 174.924 35.288 172.547 34.8901 169.5C34.3843 165.626 31.4786 159.814 46.0071 152.066C58.5747 145.363 70.2214 145.286 83.7814 144.317C97.3414 143.348 118.166 151.097 123.009 153.518C126.883 155.456 130.757 160.783 132.21 163.204L133.179 167.078H166.432C165.35 163.871 162.06 160.304 159.562 157.393V149.16C153.073 132.639 121.504 120.103 83.537 120.103Z" fill="#FFBD92"/>
<path d="M83.8669 142.38C56.271 142.38 33.9 152.506 33.9 164.997C33.9 166.539 34.2408 168.045 34.8901 169.5L34.8686 169.212C34.8686 157.068 56.8051 147.223 83.8653 147.223C109.55 147.223 131.104 156.276 133.179 167.563V162.72C131.063 151.11 110.061 142.38 83.8669 142.38Z" fill="#D18278"/>
<path d="M83.7814 123.977C46.604 123.977 16.4657 137.42 16.4657 154.003C16.4657 157.533 17.3471 161.027 19.8557 164.173C19.8557 147.857 48.7437 134.631 83.7814 134.631C115.422 134.631 143.87 148.615 148.786 162.905H149.16V149.16C143.969 134.88 117.263 123.977 83.7814 123.977Z" fill="#D18278"/>
<circle cx="83.2971" cy="77.4857" r="77.4857" fill="#E8B579"/>
<path d="M151.767 42.6573C162.221 64.2906 159.387 87.2916 145.439 94.0315C131.491 100.771 111.709 88.6979 101.256 67.0646C90.8026 45.4314 93.6359 22.4304 107.584 15.6905C121.533 8.95059 141.314 21.0241 151.767 42.6573Z" fill="#CC8973"/>
<path d="M79.251 77.6807C88.4397 108.599 81.1155 138.053 62.8921 143.469C44.6686 148.885 22.4467 128.211 13.258 97.2934C4.06936 66.3753 11.3935 36.9208 29.617 31.5049C47.8405 26.089 70.0624 46.7626 79.251 77.6807Z" fill="#CC8973"/>
<path d="M140.657 47.6295C149.443 63.473 148.588 80.7411 138.746 86.199C128.905 91.6568 113.804 83.2375 105.018 67.394C96.2313 51.5505 97.0866 34.2824 106.928 28.8246C116.77 23.3667 131.87 31.786 140.657 47.6295Z" fill="#FFD585"/>
<path d="M71.2894 79.6076C79.5259 107.322 72.2682 133.93 55.079 139.038C37.8898 144.147 17.2782 125.821 9.04172 98.1072C0.805265 70.3931 8.06291 43.7851 25.2521 38.6765C42.4414 33.568 63.0529 51.8935 71.2894 79.6076Z" fill="#FFD585"/>
</svg>
